<svg width="187" height="150" viewBox="0 0 187 150" fill="none" xmlns="http://www.w3.org/2000/svg">
<g id="logo">
<g id="Group">
<path id="Vector" d="M69.9766 0C67.0961 0 62.9509 1.11694 60.4216 2.4433L5.26932 32.8799C2.24824 34.5553 0 38.4646 0 41.955V107.156C0 110.647 2.24824 114.556 5.26932 116.231L60.4216 146.668C62.9509 148.064 67.1663 149.111 69.9766 149.111H116.417C119.297 149.111 123.513 147.994 125.972 146.668L181.124 116.231C184.145 114.556 186.394 110.647 186.394 107.156V41.955C186.394 38.4646 184.145 34.5553 181.124 32.8799L125.972 2.51312C123.443 1.11694 119.227 0.0698129 116.417 0.0698129H69.9766V0Z" fill="black"/>
</g>
<path id="Vector_2" d="M65.5502 144.923L2.24805 110.786V38.7439L65.5502 4.60742H121.546L184.777 38.7439V110.786L121.546 144.923H65.5502Z" fill="white"/>
<path id="Vector_3" d="M68.01 138.781L10.188 107.646V41.8866L68.01 10.752H119.087L176.839 41.8866V107.646L119.087 138.781H68.01Z" fill="url(#paint0_radial_1_1423)"/>
<g id="Group_2">
<path id="Vector_4" d="M69.9766 0C67.0961 0 62.9509 1.11694 60.4216 2.4433L5.26932 32.8799C2.24824 34.5553 0 38.4646 0 41.955V107.156C0 110.647 2.24824 114.556 5.26932 116.231L60.4216 146.668C62.9509 148.064 67.1663 149.111 69.9766 149.111H116.417C119.297 149.111 123.513 147.994 125.972 146.668L181.124 116.231C184.145 114.556 186.394 110.647 186.394 107.156V41.955C186.394 38.4646 184.145 34.5553 181.124 32.8799L125.972 2.51312C123.443 1.11694 119.227 0.0698129 116.417 0.0698129H69.9766V0ZM69.9766 143.596C68.0094 143.596 64.7073 142.759 62.9509 141.781L7.7986 111.415C6.53397 110.717 5.33959 108.622 5.33959 107.156V41.955C5.33959 40.489 6.53397 38.3948 7.7986 37.6967L62.9509 7.2601C64.7073 6.28278 68.0094 5.44509 69.9766 5.44509H116.417C118.384 5.44509 121.686 6.28278 123.443 7.2601L178.595 37.6967C179.86 38.3948 181.054 40.489 181.054 41.955V107.156C181.054 108.622 179.86 110.717 178.595 111.415L123.443 141.851C121.686 142.829 118.384 143.666 116.417 143.666H69.9766V143.596Z" fill="black"/>
</g>
<g id="Group_3">
<path id="Vector_5" d="M70.0469 7.81641C68.2202 7.81641 65.5505 8.51448 63.9345 9.422L11.0305 38.602C9.0633 39.6492 7.58789 42.2321 7.58789 44.466V104.641C7.58789 106.945 9.0633 109.458 11.0305 110.505L63.9345 139.685C65.5505 140.592 68.15 141.291 70.0469 141.291H116.276C118.103 141.291 120.773 140.592 122.389 139.685L175.293 110.505C177.26 109.458 178.736 106.875 178.736 104.641V44.466C178.736 42.1623 177.26 39.6492 175.293 38.602L122.389 9.422C120.773 8.51448 118.173 7.81641 116.276 7.81641H70.0469ZM70.0469 137.311C68.8526 137.311 66.8151 136.753 65.7612 136.195L12.9275 107.084C12.2249 106.665 11.5223 105.479 11.5223 104.641V44.466C11.5223 43.6283 12.2249 42.4415 12.9275 42.0227L65.8315 12.8426C66.8853 12.2841 68.9228 11.7257 70.1172 11.7257H116.347C117.541 11.7257 119.579 12.2841 120.632 12.8426L173.536 42.0227C174.239 42.4415 174.942 43.6283 174.942 44.466V104.641C174.942 105.479 174.239 106.665 173.536 107.084L120.632 136.264C119.579 136.823 117.541 137.381 116.347 137.381L70.0469 137.311Z" fill="url(#paint1_linear_1_1423)"/>
</g>
<path id="Vector_6" d="M27.5406 80.5605C27.5406 79.653 27.8919 76.4418 32.3884 75.0456L33.3017 74.7664C33.5827 74.6966 33.7935 74.6268 34.0746 74.4872C34.3556 71.6948 34.7069 68.6232 35.0582 65.9705C35.1987 64.9932 35.2689 64.0159 35.4094 63.1782C36.393 65.9007 37.7982 69.6006 39.0628 73.0212C43.6296 71.6948 49.3204 70.3684 55.3626 69.81C58.3837 69.5307 60.7724 69.3911 62.7397 69.2515C64.0043 67.2271 65.1987 65.2724 66.1823 63.597C65.9715 65.2724 65.6905 67.1573 65.4797 69.1817C68.7116 69.1817 70.1167 69.4609 71.0301 69.7402C73.2081 70.4383 74.4024 72.5325 73.8404 74.6966C73.2081 77.2097 70.3978 79.3738 66.7444 78.8153C65.9715 78.6757 65.1987 78.5361 64.2151 78.4662L64.1448 78.7455C64.0043 80.1417 64.3556 81.468 65.2689 82.4454C66.112 83.4227 67.3064 83.9113 68.6413 83.9113H72.2244C73.3486 83.9113 74.4727 83.4925 75.3158 82.8642C75.9481 83.5623 76.9317 83.9113 78.1261 83.9113H84.2385C86.3462 83.9113 88.1729 82.7246 89.7889 80.3511C90.2104 79.653 90.632 78.9549 90.913 78.4662H100.328C100.609 78.3964 100.819 78.3965 101.1 78.3965C101.381 78.3965 101.662 78.3964 101.873 78.4662H109.25C109.32 78.6757 109.461 78.9549 109.531 79.2341L109.883 80.1417C112.833 76.4418 115.925 73.5099 118.173 72.1137C119.367 71.4156 120.702 71.2061 121.967 71.4854L114.52 52.4276L114.028 51.1013V51.0314C112.974 48.7278 111.358 47.541 109.25 47.541H98.29C96.2526 47.541 94.5664 48.5882 93.0207 50.7522L78.3369 73.5796L80.8661 52.7069C81.0067 51.3107 80.6554 49.9843 79.742 49.007C78.8989 48.0297 77.7045 47.541 76.3696 47.541H64.2151C61.8263 47.541 59.8591 49.007 58.1027 52.0786L54.379 58.5708C52.9036 61.1537 51.4282 63.6668 50.3743 65.4819L50.1635 64.8536C49.0394 61.3631 47.283 55.9879 46.0886 52.288C45.0347 49.1466 43.2783 47.541 40.8895 47.541H28.6647C25.9949 47.541 23.5359 49.7749 23.1846 52.4974L19.9528 78.6757C19.8122 80.0719 20.1635 81.3982 21.0769 82.3755C21.92 83.3529 23.1143 83.8415 24.4492 83.8415H28.0324C28.3134 83.8415 28.6647 83.8415 28.9457 83.7717C28.1026 83.0038 27.5406 81.8171 27.5406 80.5605ZM98.5008 66.2497C99.8357 64.0857 101.522 61.4329 102.505 59.8273L102.787 60.5952C103.489 62.5499 104.613 65.3422 105.316 67.2271H97.8685L98.5008 66.2497Z" fill="black"/>
<path id="Vector_7" d="M164.122 48.8644C161.663 47.4682 158.571 47.1191 149.649 47.1191C133.841 47.1191 128.501 47.6078 125.41 53.4717C124.356 55.4962 123.794 58.2187 122.88 65.8279C122.599 68.1316 122.389 70.0164 122.248 71.622C122.599 71.7616 122.951 71.9012 123.302 72.1107C125.269 73.2974 126.674 75.8803 126.534 78.184C126.464 79.3009 125.972 80.6273 125.269 82.0933C125.41 82.1631 125.48 82.2329 125.62 82.3027C128.431 84.0479 132.365 84.4668 145.714 84.4668C152.389 84.4668 156.323 84.1177 159.133 83.28C163.56 81.8839 165.878 78.6727 166.581 72.9483L166.651 72.2503C166.791 71.0635 166.44 69.8768 165.597 68.9693C164.754 67.9919 163.419 67.4335 162.084 67.4335H158.15C155.972 67.4335 153.653 67.6429 152.951 70.3654V70.4352C152.951 70.5748 152.88 70.7145 152.88 70.7843C152.88 70.8541 152.88 70.9239 152.81 70.9937C152.67 71.622 152.599 71.6918 152.459 71.7616C151.475 72.1805 148.454 72.1804 144.239 72.1804C139.602 72.1804 137.002 72.1106 136.44 71.622H136.37C135.878 71.2031 136.3 67.5033 136.44 66.1071C136.791 63.3846 137.213 60.5224 138.056 59.8941C138.688 59.4055 142.061 59.3357 145.574 59.3357C151.124 59.3357 153.021 59.6149 153.583 59.7545C153.583 59.8941 153.583 60.1036 153.583 60.3828V60.4526V60.5224C153.864 63.245 156.815 63.2449 158.29 63.2449H162.154C164.965 63.2449 167.283 61.2205 167.634 58.5678C168.267 53.4019 167.143 50.5398 164.122 48.8644Z" fill="black"/>
<path id="Vector_8" d="M162.788 46.8409C160.328 45.4447 157.237 45.0957 148.314 45.0957C132.506 45.0957 127.167 45.5844 124.076 51.4483C123.022 53.4727 122.46 56.1953 121.546 63.8044C121.265 66.3175 120.984 68.4816 120.914 70.0872L113.256 50.4012L112.905 49.4936L112.694 49.005V48.9352C111.64 46.6315 110.024 45.4447 107.916 45.4447H96.9561C94.9186 45.4447 93.2324 46.4919 91.6868 48.6559L77.0732 71.623L79.6025 50.7502C79.743 49.354 79.3917 48.0277 78.4783 47.0503C77.6352 46.073 76.4409 45.5844 75.106 45.5844H62.9514C60.5626 45.5844 58.5954 47.0504 56.839 50.1219L53.2558 56.3349C51.7102 58.9876 50.1645 61.6404 49.1106 63.5252L49.0404 63.246C47.9163 59.7555 46.0896 54.101 44.8249 50.3314C43.7711 47.19 42.0146 45.5844 39.6259 45.5844H27.401C24.7312 45.5844 22.2722 47.8182 21.9209 50.5408L18.6891 76.719C18.5486 78.1152 18.8998 79.4416 19.8132 80.4189C20.6563 81.3962 21.8507 81.8849 23.1856 81.8849H26.7687C27.12 81.8849 27.4713 81.8151 27.7523 81.7453C27.6118 81.3264 27.5415 80.9076 27.5415 80.4189C27.5415 79.5114 27.8928 76.3002 32.3893 74.904H32.4596C32.8109 71.4834 33.3027 67.225 33.7242 63.595C33.7945 62.6875 33.935 61.8498 34.0052 61.0121C35.1996 64.2931 36.9561 68.9703 38.4315 73.0192C43.0685 71.6928 48.9701 70.2268 55.2933 69.6684C57.0497 69.5287 58.5954 69.3891 60.0006 69.2495C61.6868 66.4572 63.4432 63.6648 64.7781 61.5007C64.4971 63.7346 64.1458 66.3873 63.7945 69.1099C68.1505 68.9703 69.9772 69.2495 70.9608 69.5985C73.1388 70.2966 74.3331 72.3909 73.7711 74.555C73.1388 77.0681 70.3284 79.2321 66.6751 78.6737C65.5509 78.4643 64.4268 78.3246 62.8109 78.2548C62.9514 79.0227 63.3027 79.7906 63.8647 80.3491C64.7078 81.3264 65.9022 81.8151 67.2371 81.8151H70.8203C71.9444 81.8151 73.0685 81.3962 73.9116 80.7679C74.5439 81.466 75.5275 81.8151 76.7219 81.8151H82.8343C84.942 81.8151 86.7687 80.6283 88.3847 78.2548C88.8062 77.5567 89.2278 76.8586 89.5088 76.37H107.846C107.916 76.5794 108.057 76.8586 108.127 77.1379L108.478 78.0454V78.1152C108.83 78.9529 109.251 79.651 109.743 80.2095C112.764 76.4398 115.855 73.438 118.104 72.0419C119.72 71.0645 121.617 71.0645 123.232 71.972C125.2 73.1588 126.605 75.7417 126.464 78.0454C126.394 78.8831 126.113 79.8604 125.691 80.9075C128.502 82.0245 133.139 82.3735 144.31 82.3735C150.984 82.3735 154.919 82.0245 157.729 81.1868C162.155 79.7906 164.474 76.5794 165.176 70.8551L165.247 70.157C165.387 68.9703 165.036 67.7835 164.193 66.876C163.35 65.8987 162.015 65.3402 160.68 65.3402H156.745C154.567 65.3402 152.249 65.5497 151.546 68.2722V68.342C151.546 68.4816 151.476 68.6212 151.476 68.691C151.476 68.7608 151.476 68.8307 151.406 68.9005C151.265 69.5287 151.195 69.5986 151.054 69.6684C150.071 70.0872 147.05 70.0872 142.834 70.0872C138.197 70.0872 135.598 70.0174 135.036 69.5287H134.965C134.474 69.1099 134.895 65.41 135.036 64.0139C135.387 61.2913 135.809 58.4292 136.652 57.8009C137.284 57.3122 140.656 57.2424 144.169 57.2424C149.72 57.2424 151.617 57.5216 152.179 57.6613C152.179 57.8009 152.179 58.0103 152.179 58.2895V58.3594V58.4292C152.46 61.1517 155.41 61.1517 156.886 61.1517H160.75C163.56 61.1517 165.879 59.1272 166.23 56.4745C166.862 51.4483 165.809 48.5163 162.788 46.8409ZM96.4643 65.2704L97.0966 64.2233C98.4315 62.129 100.118 59.4065 101.101 57.8707L101.382 58.7084C102.085 60.663 103.139 63.3856 103.841 65.2704H96.4643Z" fill="black"/>
<g id="Group_4">
<path id="Vector_9" d="M143.536 102.06C140.515 102.967 140.937 100.524 143.958 97.7314C145.785 96.056 147.541 95.3579 146.066 93.2637C145.012 91.6581 145.293 89.9129 144.098 89.2846C142.201 88.2374 139.953 90.96 138.126 92.4958C133.349 96.5447 126.885 101.431 122.037 101.501C120.351 101.501 119.508 100.873 119.368 99.8955C125.41 98.5691 130.328 95.0787 130.539 92.426C130.82 88.3771 122.67 88.9355 117.541 95.5674C117.119 96.1258 116.698 96.7541 116.417 97.3126C114.59 98.9182 111.499 101.431 108.97 101.361C107.564 101.361 106.932 100.454 107.705 97.8012C111.007 95.2183 115.293 90.8902 117.26 88.3771C121.265 83.2112 123.302 79.5114 123.372 77.836C123.443 76.1605 121.686 73.5078 119.789 74.6946C115.714 77.2077 107.494 86.4922 104.543 96.056C102.084 97.871 97.5175 101.222 96.3934 100.733C95.2693 100.245 99.4145 94.5202 98.9227 93.1241C98.4309 91.7279 97.4473 90.0525 96.1827 90.4015C91.1241 91.6581 84.5199 99.5465 82.9742 99.9653C80.5855 100.663 81.9906 97.3824 83.747 95.2183C84.3091 94.5202 85.5737 93.5429 85.2927 92.775C84.3794 90.4713 83.0445 91.309 81.5691 92.8448C81.3583 93.1241 81.0773 93.4033 80.726 93.7523C80.726 93.6825 80.726 93.6127 80.726 93.5429C80.726 91.4486 78.9695 89.7034 73.4192 92.1467C70.6791 93.3335 68.0093 95.707 66.2529 97.8012C65.1288 98.5691 59.7189 102.827 57.2599 102.199C55.2224 101.641 59.2271 97.522 61.0538 95.8466C62.6697 94.3108 60.562 93.3335 60.3512 91.3788C60.1405 89.145 58.103 88.4469 56.0655 90.5411C54.3793 92.2864 51.3583 94.4504 49.11 95.5674C46.651 96.8239 46.1592 99.337 47.6346 99.1276C50.5854 98.6389 55.0117 95.0787 57.3302 93.3335C57.7517 93.7523 58.4543 94.7297 57.7517 95.2881C51.9203 100.035 52.5526 104.224 57.0491 104.642C59.3676 104.852 62.3887 103.107 64.4964 101.571C64.4262 102.409 64.7775 103.735 65.48 104.363C69.6252 107.854 79.1101 98.0805 79.1101 98.0805C79.1101 98.0805 77.2833 102.618 80.9367 103.456C85.5737 104.503 93.2318 93.2637 95.2693 94.7297C95.9016 95.2183 89.7892 101.85 93.5129 103.944C95.1991 104.852 98.7119 103.944 104.403 99.6861C104.473 101.641 105.176 104.084 107.916 104.363C110.867 104.642 114.239 101.99 115.995 100.384C116.206 102.478 117.822 104.433 120.211 104.573C126.956 105.131 131.874 101.222 136.019 97.8012C139.391 95.0787 141.78 92.9844 142.272 92.6354C143.255 91.8675 143.255 93.4033 143.677 94.1712C144.169 95.0787 134.895 100.245 139.11 104.293C140.937 106.039 145.574 104.503 149.016 102.06C151.265 100.454 152.881 99.337 153.653 96.5447C154.356 94.241 150.422 100.035 143.536 102.06ZM123.794 93.7523C126.955 91.5883 129.204 92.3562 124.426 95.4277C122.248 96.8239 119.93 97.4522 119.93 97.4522C120.913 95.707 122.389 94.7297 123.794 93.7523ZM116.206 82.0943C121.054 76.37 121.054 78.3944 117.611 83.4905C115.012 87.3299 111.358 91.3788 108.689 93.8221C111.148 88.3073 113.536 85.2357 116.206 82.0943ZM69.274 102.269C66.1826 103.456 69.1335 96.6843 75.9485 94.9391C77.7752 94.4504 78.6182 94.9391 79.5316 94.8693C77.2833 97.173 73.4894 100.663 69.274 102.269Z" fill="black"/>
<path id="Vector (Stroke)" d="M118.96 73.3892C119.781 72.8757 120.683 72.738 121.541 72.9533C122.35 73.1565 122.995 73.6394 123.466 74.1503C124.372 75.1332 124.98 76.6007 124.925 77.8985C124.897 78.5667 124.687 79.2975 124.397 80.0274C124.098 80.7781 123.676 81.6267 123.143 82.5572C122.077 84.4194 120.522 86.6971 118.493 89.3148L118.488 89.3206C116.521 91.8327 112.408 96.0019 109.077 98.6818C108.988 99.0521 108.944 99.3428 108.93 99.5662C108.924 99.6722 108.927 99.7546 108.93 99.8167C108.943 99.817 108.956 99.8186 108.97 99.8186H109.164C109.937 99.7895 110.956 99.3897 112.131 98.6585C113.246 97.9642 114.313 97.0873 115.178 96.3355C115.501 95.7493 115.912 95.1521 116.298 94.6415L116.302 94.6347L116.308 94.6279C119.089 91.0325 122.741 89.0072 125.799 88.4722C127.306 88.2085 128.843 88.2795 130.063 88.9061C130.692 89.2292 131.248 89.7087 131.623 90.3633C131.952 90.9378 132.103 91.5787 132.1 92.2436L132.09 92.53L132.089 92.5378V92.5456C132.002 93.6349 131.456 94.6395 130.765 95.4909C130.068 96.3492 129.133 97.1631 128.055 97.9013C128.46 97.6757 128.872 97.4358 129.289 97.1791C132.008 95.5044 134.748 93.3306 137.118 91.3224L137.122 91.3185L137.444 91.0399C137.77 90.7503 138.115 90.4265 138.511 90.0643C139.013 89.6045 139.581 89.1002 140.172 88.6731C141.236 87.9055 143.004 86.9354 144.826 87.9208H144.827C144.831 87.9232 144.836 87.9261 144.84 87.9285C144.845 87.9311 144.85 87.9337 144.855 87.9363H144.854C146.067 88.5893 146.427 89.7957 146.626 90.4739C146.868 91.2942 146.997 91.8566 147.368 92.4213C147.817 93.0683 148.14 93.7764 148.169 94.5512C148.199 95.3816 147.885 96.0539 147.498 96.5714C147.138 97.0528 146.666 97.4639 146.268 97.7975C145.828 98.1662 145.436 98.4741 145.014 98.8614C144.396 99.4326 143.922 99.9656 143.588 100.424C146.505 99.4635 148.847 97.7795 150.462 96.4801C150.89 96.1356 151.252 95.8299 151.581 95.5579C151.884 95.3075 152.203 95.0467 152.473 94.8677C152.594 94.7868 152.818 94.6449 153.09 94.557C153.291 94.492 154.169 94.26 154.848 94.9929C155.131 95.299 155.227 95.6353 155.263 95.8413C155.298 96.0503 155.29 96.2322 155.278 96.351C155.256 96.5863 155.195 96.8133 155.141 96.9898L155.14 96.9888C154.202 100.334 152.144 101.725 149.925 103.31L149.921 103.311C148.076 104.621 145.886 105.71 143.851 106.237C142.834 106.501 141.789 106.642 140.812 106.559C139.833 106.476 138.822 106.156 138.033 105.403L138.03 105.4C137.337 104.734 136.857 103.981 136.621 103.15C136.385 102.32 136.418 101.506 136.607 100.756C136.822 99.9024 137.248 99.1048 137.747 98.3867C137.504 98.5851 137.256 98.7894 137 98.9954C132.911 102.37 127.547 106.708 120.12 106.109V106.11C120.111 106.11 120.102 106.108 120.094 106.107C120.09 106.107 120.086 106.108 120.082 106.107V106.106C117.859 105.963 116.176 104.682 115.244 103.025C114.619 103.501 113.925 103.983 113.188 104.41C111.657 105.297 109.729 106.082 107.769 105.897L107.757 105.895C105.858 105.701 104.576 104.712 103.818 103.432C103.612 103.084 103.449 102.719 103.318 102.351C101.278 103.722 99.5052 104.655 97.9845 105.201C96.0354 105.9 94.2007 106.066 92.7723 105.298L92.7469 105.284C92.0355 104.884 91.493 104.332 91.1527 103.648C90.8195 102.979 90.7256 102.275 90.7534 101.623C90.7942 100.67 91.1011 99.7042 91.4717 98.841C91.0469 99.2303 90.5986 99.643 90.1271 100.071C88.7525 101.319 87.2089 102.664 85.6802 103.628C84.2187 104.549 82.399 105.365 80.5923 104.957L80.5874 104.956C79.3122 104.664 78.3747 104 77.7934 103.078C77.5422 102.68 77.3783 102.262 77.2718 101.851C76.5169 102.481 75.6564 103.156 74.7411 103.792C73.2428 104.833 71.5052 105.838 69.7932 106.333C68.0876 106.825 66.0832 106.89 64.4753 105.536L64.4577 105.522L64.4401 105.506C63.995 105.108 63.6783 104.607 63.4546 104.116C62.8322 104.491 62.1761 104.85 61.5061 105.158C60.1072 105.802 58.4727 106.318 56.9085 106.176L56.9046 106.175C55.5608 106.05 54.3311 105.629 53.4138 104.826C52.4623 103.993 51.9677 102.85 51.9743 101.579C51.9796 100.557 52.3019 99.4949 52.903 98.4217C51.2966 99.436 49.4975 100.381 47.8914 100.647L47.8728 100.65L47.8552 100.652C47.4674 100.707 47.017 100.69 46.5732 100.506C46.1104 100.313 45.7535 99.9776 45.53 99.5672C45.1181 98.8106 45.2353 97.986 45.4175 97.4237C45.8071 96.2211 46.8592 94.9829 48.3993 94.1959L48.4072 94.191L48.415 94.1871C50.518 93.1423 53.3915 91.0803 54.9444 89.473L54.9474 89.4692L55.1793 89.241C56.3549 88.1318 57.8114 87.4858 59.2631 87.8383C60.8903 88.2335 61.7447 89.6806 61.8956 91.2137H61.8966C61.9212 91.4417 62.0038 91.679 62.1598 91.9806C62.2395 92.1346 62.3287 92.2872 62.4358 92.4698C62.5354 92.6397 62.6608 92.8515 62.7715 93.0659C62.9858 93.4812 63.2651 94.1221 63.205 94.8929C63.1408 95.717 62.7185 96.3979 62.1295 96.9577L62.1197 96.9674L62.109 96.9772C61.2209 97.7917 59.8462 99.1635 58.9578 100.356C58.9245 100.401 58.8934 100.445 58.8628 100.487C58.9073 100.472 58.9538 100.457 59.0008 100.44C59.742 100.165 60.5902 99.7223 61.4523 99.2041C63.0669 98.2337 64.4562 97.1779 65.1936 96.6558C66.9232 94.6306 69.4769 92.3329 72.2299 90.9933L72.7975 90.7321C75.662 89.4724 77.956 89.0939 79.6665 89.6866C80.4273 89.9503 80.9918 90.3727 81.3987 90.8768C81.502 90.7905 81.6062 90.707 81.7119 90.6283C82.1431 90.307 82.7058 89.9701 83.3658 89.8517C84.1076 89.7186 84.8669 89.8833 85.509 90.3972C86.0115 90.7995 86.3664 91.354 86.6314 91.9514L86.7391 92.2097L86.7469 92.2281L86.7538 92.2475C87.0006 92.9221 86.8631 93.5443 86.6853 93.9707C86.5126 94.3846 86.2538 94.7361 86.0413 94.9948C85.8224 95.2613 85.5794 95.5151 85.3925 95.7103C85.288 95.8194 85.2024 95.9082 85.1322 95.9841L84.9619 96.1792L84.958 96.1831C84.7828 96.3989 84.6153 96.6238 84.4579 96.85C85.2486 96.13 86.2486 95.2074 87.2294 94.3434C88.4866 93.236 89.8906 92.0709 91.323 91.0952C92.7384 90.131 94.2787 89.2836 95.8061 88.9042V88.9051C97.3005 88.5134 98.4257 89.3989 99.0326 90.1157C99.6681 90.8663 100.113 91.8293 100.39 92.6145C100.598 93.205 100.508 93.7966 100.428 94.159C100.337 94.5724 100.183 95.0041 100.018 95.4093C99.6885 96.2181 99.2187 97.1432 98.8134 97.9528C98.7642 98.0511 98.7156 98.1476 98.6686 98.2421C98.8189 98.1511 98.9754 98.0571 99.1344 97.9567C100.508 97.0896 102.023 95.9895 103.212 95.1142C104.792 90.2775 107.602 85.5921 110.508 81.7971C113.488 77.9054 116.692 74.7921 118.96 73.3902V73.3892ZM78.6419 92.597C78.0884 92.4052 76.7318 92.3737 74.0502 93.5542L74.0414 93.5581C71.6015 94.6149 69.1158 96.7976 67.4484 98.7857L67.3114 98.9488L67.1352 99.0692C66.9757 99.1781 66.6473 99.4166 66.2104 99.7312L66.046 101.697C66.031 101.875 66.0609 102.211 66.1781 102.573C66.2929 102.927 66.4346 103.13 66.5099 103.205C66.7288 103.382 67.0059 103.507 67.3652 103.553C66.8094 103.158 66.5633 102.549 66.5089 102.027C66.4477 101.44 66.596 100.859 66.779 100.382C66.9723 99.8778 67.2575 99.3544 67.6098 98.8381C69.0027 96.7976 71.749 94.4205 75.5602 93.4445V93.4455C76.6752 93.1493 77.5287 93.1441 78.2309 93.2105C78.5225 93.2382 78.8794 93.2904 79.0304 93.3086C79.079 93.3144 79.1224 93.3167 79.1606 93.3202C79.1149 92.876 78.9242 92.6949 78.6419 92.597ZM140.067 100.506C139.852 100.862 139.7 101.195 139.622 101.504C139.542 101.822 139.547 102.083 139.612 102.314C139.678 102.543 139.83 102.836 140.189 103.181L140.242 103.227C140.381 103.335 140.63 103.449 141.077 103.487C141.089 103.488 141.102 103.487 141.114 103.488C140.699 103.269 140.351 102.929 140.138 102.477C139.91 101.992 139.889 101.498 139.939 101.092C139.964 100.896 140.008 100.701 140.067 100.506ZM117.49 99.7099L117.542 100.229C117.682 101.617 118.673 102.79 120.027 103.003L120.303 103.032L120.322 103.034L120.34 103.035C124.272 103.36 127.533 102.005 130.489 100.064C127.741 101.707 124.782 103.001 122.061 103.041H122.038C121.026 103.041 120.063 102.856 119.284 102.361C118.451 101.831 117.962 101.027 117.83 100.112L117.762 99.6361L117.49 99.7099ZM106.499 101.871C106.794 102.37 107.233 102.741 108.071 102.827C108.125 102.832 108.18 102.835 108.236 102.837C107.942 102.784 107.642 102.693 107.353 102.544C107.004 102.363 106.708 102.117 106.47 101.816C106.48 101.834 106.488 101.853 106.499 101.871ZM95.1367 98.4634C94.9622 98.7722 94.7876 99.089 94.6259 99.4148C94.157 100.359 93.884 101.162 93.8586 101.753C93.847 102.026 93.8912 102.188 93.9389 102.283C93.9786 102.363 94.0576 102.473 94.2667 102.593C94.5342 102.73 95.2933 102.882 96.9041 102.309C96.5792 102.337 96.1748 102.32 95.7699 102.144C94.7624 101.706 94.6361 100.727 94.6464 100.286C94.6572 99.8283 94.7938 99.3717 94.9185 99.0206C94.9815 98.8432 95.0553 98.6562 95.1367 98.4634ZM55.2879 100.627C55.1452 101.006 55.0828 101.331 55.0814 101.595C55.08 101.892 55.1518 102.117 55.2801 102.301C55.0803 101.755 55.1342 101.225 55.2243 100.849C55.242 100.775 55.2649 100.701 55.2879 100.627ZM80.2371 99.9914C80.22 100.144 80.2077 100.299 80.2077 100.453C80.2077 100.906 80.2947 101.232 80.4279 101.444C80.5315 101.608 80.7356 101.825 81.2852 101.951C81.6798 102.039 82.2885 101.94 83.1602 101.506C82.4124 101.674 81.2927 101.704 80.5796 100.722C80.4057 100.483 80.3002 100.231 80.2371 99.9914ZM75.2118 96.783C73.1844 97.5378 71.6387 98.7828 70.6729 99.9273C72.3043 99.0529 73.8468 97.9281 75.2118 96.783ZM118.332 97.1276C118.124 97.4375 117.94 97.7361 117.808 97.9994L117.674 98.2663L117.447 98.4644C117.423 98.4862 117.397 98.5072 117.371 98.5294L117.397 98.7857L118.332 97.1276ZM108.153 91.3068C107.299 93.0088 106.569 94.7565 106.03 96.5054L105.88 96.9888L105.861 97.0014L105.919 98.611C105.989 98.2053 106.091 97.7897 106.213 97.3713L106.351 96.8956L106.743 96.5888C107.509 95.9897 108.331 95.2914 109.164 94.5434L107.268 93.1969C107.563 92.5343 107.859 91.9058 108.153 91.3068ZM83.5791 93.0931C83.3402 93.2711 83.0587 93.5294 82.7287 93.8707C82.4523 94.2167 82.1229 94.5449 81.8264 94.8395L79.1723 97.4771V97.3956C79.0952 97.4686 79.0158 97.5409 78.9365 97.615L80.2576 98.4605C80.273 98.3934 80.2882 98.3275 80.3056 98.2634C80.655 96.9755 81.586 95.4219 82.5369 94.2502C82.7274 94.0142 82.9626 93.7712 83.1387 93.5872C83.3286 93.3888 83.4828 93.224 83.6114 93.0698C83.601 93.0773 83.5901 93.0849 83.5791 93.0931ZM88.9625 96.9441C88.3753 97.4669 87.8381 97.9549 87.3312 98.4197C87.5626 98.2143 87.7966 98.0074 88.0289 97.7965C88.3381 97.5158 88.6512 97.2301 88.9625 96.9441ZM58.5242 90.8331C58.4964 90.8264 58.1305 90.7783 57.4977 91.3156L58.4303 92.2427C58.7228 92.5333 59.1676 93.0614 59.4158 93.7085C59.5437 94.0422 59.6571 94.5068 59.5792 95.0298C59.5745 95.0611 59.5666 95.092 59.5606 95.123C59.711 94.98 59.8529 94.8477 59.9834 94.7279C60.0258 94.6873 60.0552 94.6528 60.0773 94.6269C60.0619 94.5896 60.0397 94.538 60.0049 94.4706C59.9399 94.3447 59.8606 94.2097 59.7495 94.0202C59.6459 93.8436 59.5175 93.6245 59.3952 93.3882C59.1473 92.9089 58.8869 92.29 58.8061 91.5408L58.8041 91.5214C58.7718 91.179 58.6792 90.9929 58.6201 90.9117C58.5697 90.8424 58.5381 90.8365 58.5242 90.8331ZM96.4784 91.9184C95.5885 92.1547 94.5601 92.6676 93.4407 93.3979C93.5201 93.3608 93.6001 93.3267 93.6795 93.295C94.2295 93.0756 95.149 92.8557 96.0106 93.3678L96.1819 93.4804L96.2034 93.4959L96.2249 93.5125L96.3473 93.6154C96.7969 94.033 96.869 94.5531 96.8669 94.8677C96.9655 94.6534 97.0576 94.4489 97.137 94.2541C97.2736 93.9191 97.3543 93.6705 97.3915 93.5018C97.3939 93.4908 97.3945 93.48 97.3964 93.4707C97.1882 92.9211 96.9219 92.4161 96.6526 92.098C96.5752 92.0067 96.5177 91.951 96.4784 91.9184ZM128.125 91.4787C128.645 91.9363 128.766 92.5266 128.722 93.0154C128.902 92.7083 128.973 92.4736 128.988 92.3165C129.005 92.0731 128.956 91.949 128.921 91.8874C128.884 91.8235 128.809 91.734 128.633 91.6437C128.505 91.5778 128.335 91.5207 128.125 91.4787ZM143.343 90.6302C143.287 90.5993 143.065 90.4931 142.378 90.9147C142.667 90.86 142.991 90.8647 143.339 90.9797C143.415 91.0048 143.487 91.0351 143.554 91.0671C143.496 90.8905 143.453 90.7794 143.41 90.703C143.387 90.6644 143.373 90.6481 143.369 90.6438L143.357 90.638L143.343 90.6302ZM120.698 75.955L120.618 75.9967L120.61 76.0025C120.061 76.3414 119.407 76.8345 118.682 77.4626C118.818 77.3796 118.959 77.306 119.102 77.2481C119.302 77.1673 119.703 77.0333 120.186 77.1219C120.802 77.235 121.251 77.6513 121.457 78.1518C121.534 78.3387 121.569 78.5198 121.584 78.68C121.756 78.2106 121.814 77.9183 121.82 77.7703C121.827 77.615 121.789 77.3512 121.663 77.0335C121.54 76.7226 121.363 76.4378 121.172 76.2307C120.976 76.0176 120.83 75.9554 120.779 75.9424C120.777 75.9419 120.76 75.9282 120.698 75.955Z" fill="black"/>
<path id="Vector_10" d="M101.171 86.0049C102.374 86.0049 103.349 85.0047 103.349 83.771C103.349 82.5372 102.374 81.5371 101.171 81.5371C99.9678 81.5371 98.9927 82.5372 98.9927 83.771C98.9927 85.0047 99.9678 86.0049 101.171 86.0049Z" fill="black"/>
<path id="Vector (Stroke)_2" d="M101.794 83.7714C101.794 83.3404 101.467 83.0795 101.171 83.0793C100.875 83.0793 100.547 83.3402 100.547 83.7714C100.547 84.2028 100.875 84.4636 101.171 84.4636C101.467 84.4634 101.794 84.2025 101.794 83.7714ZM104.902 83.7714C104.902 85.8075 103.28 87.5466 101.171 87.5468C99.0613 87.5468 97.4385 85.8076 97.4385 83.7714C97.4385 81.7353 99.0614 79.9961 101.171 79.9961C103.28 79.9963 104.902 81.7355 104.902 83.7714Z" fill="black"/>
</g>
<path id="Vector (Stroke)_3" d="M65.7611 70.7617C67.7803 70.7617 69.1756 70.8789 70.1179 71.0947L70.4937 71.1937L70.5045 71.1966L70.6787 71.2558C71.5355 71.5749 72.1771 72.2555 72.3365 73.1848C72.4869 74.0622 72.1589 74.8797 71.7248 75.471C70.8828 76.618 69.3077 77.424 67.4306 77.2417L67.0509 77.1921C64.8229 76.8232 62.4694 76.5578 57.5924 76.9669C57.3748 77.5412 56.9808 78.2307 56.2351 78.8658L56.2341 78.8648C51.0561 83.3247 45.3943 89.4588 42.6429 97.527L42.6409 97.5338C42.2881 98.5538 42.0584 99.5571 41.8688 100.52C41.6893 101.432 41.5238 102.441 41.3296 103.241C41.1367 104.035 40.8466 104.954 40.2453 105.663C39.545 106.488 38.572 106.866 37.4395 106.81H37.4317C35.9351 106.727 35.0341 105.621 34.6387 104.459C34.2495 103.316 34.219 101.86 34.4821 100.243C35.0139 96.9768 36.8263 92.5694 40.4664 87.4843C43.0898 83.7955 45.723 80.7694 47.9892 78.4872C44.1448 79.4587 41.3074 80.5722 39.0817 81.4927C37.5167 82.1399 36.1122 82.7546 34.9059 83.1178C33.6667 83.4908 32.3978 83.679 31.098 83.2915V83.2896C29.6286 82.8817 28.9076 81.3246 29.1554 79.9394C29.4342 78.3826 30.7623 77.1646 32.8282 76.5077L32.8312 76.5058L34.6759 75.9214C39.4222 74.4218 47.145 72.0928 55.4326 71.3442C60.0948 70.9231 63.4131 70.7617 65.7611 70.7617ZM43.003 89.2657L43.0001 89.2696C39.5443 94.0972 37.9844 98.0672 37.5501 100.734C37.3303 102.085 37.4171 102.985 37.5834 103.473C37.6284 103.605 37.6693 103.684 37.6979 103.729C37.8661 103.725 37.8624 103.685 37.8682 103.678C37.9737 103.553 38.1318 103.242 38.3076 102.519C38.4822 101.8 38.6071 101.002 38.8184 99.9287C39.0196 98.9067 39.2814 97.7463 39.7011 96.5329C40.7295 93.5193 42.1226 90.7685 43.7253 88.2687C43.4851 88.595 43.2437 88.9272 43.003 89.2657ZM43.1723 76.6689C39.3101 77.6594 36.0349 78.7297 33.7755 79.4424L33.7765 79.4434C32.6577 79.7991 32.3379 80.2159 32.2489 80.3928C32.6666 80.458 33.1987 80.4099 34.0036 80.1676C35.0147 79.8632 36.2014 79.343 37.8858 78.6464C39.347 78.0421 41.0772 77.3527 43.1723 76.6689ZM54.9462 74.4885C54.3747 74.5473 53.8061 74.6135 53.2415 74.6866L54.0792 76.6407C54.1209 76.6047 54.1618 76.5679 54.2034 76.532L54.2103 76.5262L54.3082 76.4379C54.521 76.233 54.6206 76.0472 54.6771 75.902C54.7545 75.703 54.7653 75.57 54.8141 75.2787L54.9462 74.4885ZM65.3686 73.8478C66.1455 73.9294 66.8589 74.0341 67.5627 74.1507L67.7291 74.173C68.183 74.2181 68.5369 74.1238 68.7928 73.9915C68.1548 73.9089 67.1875 73.8449 65.7611 73.8449C65.6336 73.8449 65.5028 73.8468 65.3686 73.8478Z" fill="black"/>
<g id="Group_5">
<path id="Vector_11" d="M143.536 102.06C140.515 102.967 140.937 100.524 143.958 97.7314C145.785 96.056 147.541 95.3579 146.066 93.2637C145.012 91.6581 145.293 89.9129 144.098 89.2846C142.201 88.2374 139.953 90.96 138.126 92.4958C133.349 96.5447 126.885 101.431 122.037 101.501C120.351 101.501 119.508 100.873 119.368 99.8955C125.41 98.5691 130.328 95.0787 130.539 92.426C130.82 88.3771 122.67 88.9355 117.541 95.5674C117.119 96.1258 116.698 96.7541 116.417 97.3126C114.59 98.9182 111.499 101.431 108.97 101.361C107.564 101.361 106.932 100.454 107.705 97.8012C111.007 95.2183 115.293 90.8902 117.26 88.3771C121.265 83.2112 123.302 79.5114 123.372 77.836C123.443 76.1605 121.686 73.5078 119.789 74.6946C115.714 77.2077 107.494 86.4922 104.543 96.056C102.084 97.871 97.5175 101.222 96.3934 100.733C95.2693 100.245 99.4145 94.5202 98.9227 93.1241C98.4309 91.7279 97.4473 90.0525 96.1826 90.4015C91.1241 91.6581 84.5199 99.5465 82.9742 99.9653C80.5855 100.663 81.9906 97.3824 83.747 95.2183C84.3091 94.5202 85.5737 93.5429 85.2927 92.775C84.3794 90.4713 83.0445 91.309 81.5691 92.8448C81.3583 93.1241 81.0773 93.4033 80.726 93.7523C80.726 93.6825 80.726 93.6127 80.726 93.5429C80.726 91.4486 78.9695 89.7034 73.4192 92.1467C70.6791 93.3335 68.0093 95.707 66.2529 97.8012C65.1288 98.5691 59.7189 102.827 57.2599 102.199C55.2224 101.641 59.2271 97.522 61.0538 95.8466C62.6697 94.3108 60.562 93.3335 60.3512 91.3788C60.1405 89.145 58.103 88.4469 56.0655 90.5411C54.3793 92.2864 51.3583 94.4504 49.11 95.5674C46.651 96.8239 46.1592 99.337 47.6346 99.1276C50.5854 98.6389 55.0117 95.0787 57.3302 93.3335C57.7517 93.7523 58.4543 94.7297 57.7517 95.2881C51.9203 100.035 52.5526 104.224 57.0491 104.642C59.3676 104.852 62.3887 103.107 64.4964 101.571C64.4262 102.409 64.7775 103.735 65.48 104.363C69.6252 107.854 79.11 98.0805 79.11 98.0805C79.11 98.0805 77.2833 102.618 80.9367 103.456C85.5737 104.503 93.2318 93.2637 95.2693 94.7297C95.9016 95.2183 89.7892 101.85 93.5129 103.944C95.1991 104.852 98.7119 103.944 104.403 99.6861C104.473 101.641 105.176 104.084 107.916 104.363C110.867 104.642 114.239 101.99 115.995 100.384C116.206 102.478 117.822 104.433 120.211 104.573C126.956 105.131 131.874 101.222 136.019 97.8012C139.391 95.0787 141.78 92.9844 142.272 92.6354C143.255 91.8675 143.255 93.4033 143.677 94.1712C144.169 95.0787 134.895 100.245 139.11 104.293C140.937 106.039 145.574 104.503 149.016 102.06C151.265 100.454 152.881 99.337 153.653 96.5447C154.356 94.241 150.422 100.035 143.536 102.06ZM123.794 93.7523C126.955 91.5883 129.204 92.3562 124.426 95.4277C122.248 96.8239 119.93 97.4522 119.93 97.4522C120.913 95.707 122.389 94.7297 123.794 93.7523ZM116.206 82.0943C121.054 76.37 121.054 78.3944 117.611 83.4905C115.012 87.3299 111.358 91.3788 108.689 93.8221C111.148 88.3073 113.536 85.2357 116.206 82.0943ZM69.274 102.269C66.1826 103.456 69.1335 96.6843 75.9485 94.9391C77.7752 94.4504 78.6182 94.9391 79.5316 94.8693C77.2833 97.173 73.4894 100.663 69.274 102.269Z" fill="url(#paint2_linear_1_1423)"/>
<path id="Vector_12" d="M101.171 86.0049C102.374 86.0049 103.349 85.0047 103.349 83.771C103.349 82.5372 102.374 81.5371 101.171 81.5371C99.9678 81.5371 98.9927 82.5372 98.9927 83.771C98.9927 85.0047 99.9678 86.0049 101.171 86.0049Z" fill="url(#paint3_linear_1_1423)"/>
</g>
<path id="Vector_13" d="M70.047 72.6692C68.6418 72.2504 64.8479 72.0409 55.5739 72.8787C46.2999 73.7164 37.7284 76.5785 33.3022 77.9747C29.7893 79.0916 30.4217 81.5349 31.5458 81.8142C35.0587 82.8613 39.2741 78.1143 53.3256 75.8106C50.8666 77.6256 46.2999 81.9538 41.7331 88.3762C34.6371 98.289 34.9884 105.13 37.5177 105.27C40.328 105.41 39.6254 101.5 41.1711 97.0325C44.0516 88.5856 49.9533 82.233 55.2226 77.6955C56.2062 76.8578 56.2765 75.9502 56.3467 75.5314C62.1078 74.9729 64.7776 75.2521 67.3069 75.671C70.2577 76.1597 71.8737 73.2277 70.047 72.6692Z" fill="url(#paint4_linear_1_1423)"/>
<g id="Group_6">
<path id="Vector_14" d="M157.096 60.1741H160.96C163.067 60.1741 165.035 58.6383 165.316 56.4045C165.737 51.6575 164.824 49.2142 162.224 47.7482C159.976 46.4916 157.025 46.1426 148.313 46.1426C132.154 46.1426 127.728 46.8407 125.058 51.9367C124.074 53.8215 123.512 56.4743 122.599 63.9438C122.177 67.2248 121.967 69.7379 121.826 71.4831C122.318 71.6227 122.81 71.7624 123.302 72.0416C125.269 73.2283 126.674 75.8113 126.533 78.1149C126.463 78.6734 126.323 79.3017 126.112 79.9998C128.782 81.0469 133.208 81.396 144.379 81.396C150.983 81.396 154.777 81.0469 157.447 80.2092C161.522 78.8828 163.489 76.0905 164.121 70.7152L164.192 70.0869C164.473 68.0625 162.786 66.4569 160.749 66.4569H156.814C154.285 66.4569 153.091 66.8758 152.669 68.621C152.599 68.8304 152.599 69.0398 152.529 69.2493C152.318 70.2266 152.107 70.5756 151.545 70.785C150.351 71.3435 147.751 71.3435 142.903 71.3435C136.861 71.3435 135.175 71.2039 134.402 70.5058C133.7 69.9473 133.489 68.9002 134.121 64.0136C134.683 59.6157 135.175 57.8006 136.159 57.0327C136.932 56.4743 138.829 56.2648 144.309 56.2648C151.334 56.2648 152.88 56.6837 153.231 56.9629C153.372 57.1025 153.512 57.2422 153.442 58.4987C153.653 59.8251 154.777 60.1741 157.096 60.1741Z" fill="url(#paint5_linear_1_1423)"/>
<path id="Vector_15" d="M27.5409 80.5579C27.5409 79.7201 27.822 76.9976 31.3349 75.4618C32.1077 68.7602 33.3021 58.0795 33.4426 56.8229C33.5129 56.8229 33.5128 56.8229 33.5128 56.8229C33.7236 57.4512 36.9555 66.1075 39.4847 72.8789C43.9812 71.6223 49.4613 70.3658 55.2927 69.8073C56.5574 69.6677 57.6815 69.5979 58.6651 69.5281C62.3185 63.5245 66.1827 57.3814 66.5339 56.8229C66.3934 57.7304 65.6206 63.5245 64.918 69.179C68.5012 69.1092 70.0468 69.3885 71.0304 69.7375C73.2084 70.4356 74.4028 72.5299 73.8408 74.6939C73.2084 77.207 70.3981 79.3711 66.7447 78.8126C65.9016 78.673 65.0585 78.5334 64.0047 78.4636C64.4262 79.9296 65.6909 80.9069 67.3068 80.9069H70.8899C72.2248 80.9069 73.4894 80.2088 74.3325 79.2315C74.4731 80.2786 75.4567 80.9069 76.8618 80.9069H82.9742C84.8712 80.9069 86.3466 79.7202 87.6112 77.8353C88.2436 76.7882 88.8759 75.8109 89.0866 75.4618C90.2108 75.4618 107.705 75.4618 108.829 75.4618C108.97 75.8109 109.321 76.7882 109.672 77.8353C109.953 78.4636 110.234 79.0221 110.585 79.5107C113.396 76.1599 116.206 73.5072 118.244 72.1808C118.876 71.762 119.578 71.5525 120.281 71.4827L111.71 49.5628C110.937 47.8176 109.742 46.7007 107.916 46.7007H96.9555C95.1991 46.7007 93.7939 47.7478 92.5293 49.493L75.3161 76.2297L78.4777 50.6798C78.7588 48.4459 77.2131 46.6309 75.0351 46.6309H62.8806C60.7026 46.6309 59.0866 48.2365 57.6815 50.6798C54.8009 55.706 50.0937 63.9434 48.7588 66.1773C48.0562 63.9434 45.3161 55.706 43.7002 50.6798C42.9274 48.2365 41.6627 46.6309 39.4847 46.6309H27.2599C25.0819 46.6309 23.1147 48.4459 22.8337 50.6798L19.6018 76.858C19.3208 79.0919 20.8665 80.9069 23.0445 80.9069H26.6276C26.9086 80.9069 27.1897 80.9069 27.4707 80.8371C27.541 80.6975 27.5409 80.6277 27.5409 80.5579ZM100.89 56.1248C101.171 56.1248 101.311 56.1248 101.593 56.1248C101.944 57.0323 104.614 64.1528 105.457 66.3169C103.279 66.3169 96.7447 66.3169 94.5668 66.3169C95.9016 64.2226 100.398 57.0323 100.89 56.1248Z" fill="url(#paint6_linear_1_1423)"/>
</g>
</g>
<defs>
<radialGradient id="paint0_radial_1_1423" cx="0" cy="0" r="1" gradientUnits="userSpaceOnUse" gradientTransform="translate(93.3534 75.9271) scale(92.7884 68.0275)">
<stop offset="0.5738" stop-color="white"/>
<stop offset="0.7624" stop-color="#D9DEE3"/>
<stop offset="0.9282" stop-color="#A6B2B9"/>
</radialGradient>
<linearGradient id="paint1_linear_1_1423" x1="93.1965" y1="47.3833" x2="93.1965" y2="73.4395" gradientUnits="userSpaceOnUse">
<stop offset="0.4481" stop-color="#B32C4C"/>
<stop offset="0.6066" stop-color="#ECE9E7"/>
<stop offset="0.7923" stop-color="#B32C4C"/>
<stop offset="1" stop-color="#943437"/>
</linearGradient>
<linearGradient id="paint2_linear_1_1423" x1="100.25" y1="88.4161" x2="100.25" y2="105.744" gradientUnits="userSpaceOnUse">
<stop stop-color="#919FA7"/>
<stop offset="0.2186" stop-color="#A6B9C5"/>
<stop offset="0.5082" stop-color="#F5F6F7"/>
<stop offset="0.5246" stop-color="#636F6F"/>
<stop offset="0.694" stop-color="#919FA7"/>
<stop offset="0.92" stop-color="#919FA7"/>
</linearGradient>
<linearGradient id="paint3_linear_1_1423" x1="101.199" y1="88.4174" x2="101.199" y2="105.745" gradientUnits="userSpaceOnUse">
<stop stop-color="#919FA7"/>
<stop offset="0.2186" stop-color="#A6B9C5"/>
<stop offset="0.5082" stop-color="#F5F6F7"/>
<stop offset="0.5246" stop-color="#636F6F"/>
<stop offset="0.694" stop-color="#919FA7"/>
<stop offset="0.92" stop-color="#919FA7"/>
</linearGradient>
<linearGradient id="paint4_linear_1_1423" x1="50.752" y1="88.4152" x2="50.752" y2="105.743" gradientUnits="userSpaceOnUse">
<stop stop-color="#919FA7"/>
<stop offset="0.2186" stop-color="#A6B9C5"/>
<stop offset="0.5082" stop-color="#F5F6F7"/>
<stop offset="0.5246" stop-color="#636F6F"/>
<stop offset="0.694" stop-color="#919FA7"/>
<stop offset="0.92" stop-color="#919FA7"/>
</linearGradient>
<linearGradient id="paint5_linear_1_1423" x1="143.672" y1="44.2342" x2="143.672" y2="75.8368" gradientUnits="userSpaceOnUse">
<stop offset="0.4481" stop-color="#B32C4C"/>
<stop offset="0.6066" stop-color="#ECE9E7"/>
<stop offset="0.7923" stop-color="#B32C4C"/>
<stop offset="1" stop-color="#943437"/>
</linearGradient>
<linearGradient id="paint6_linear_1_1423" x1="69.961" y1="44.7754" x2="69.961" y2="75.4993" gradientUnits="userSpaceOnUse">
<stop offset="0.4481" stop-color="#B32C4C"/>
<stop offset="0.6066" stop-color="#ECE9E7"/>
<stop offset="0.7923" stop-color="#B32C4C"/>
<stop offset="1" stop-color="#943437"/>
</linearGradient>
</defs>
</svg>
